# xmcd CD database file
#
# Track frame offsets:
#	150
#	1657
#	254255
#	259412
#
# Disc length: 3484 seconds
#
# Revision: 0
# Processed by: cddbd v1.5.1PL2 Copyright (c) Steve Scherf et al.
# Submitted via: CDex 1.51
#
DISCID=290d9a04
DTITLE=立川志の輔 - 志の輔らくごBOX_その5
DYEAR=2003
DGENRE=落語
TTITLE0=ギター・ジングル〜ウォーク
TTITLE1=落語「帯久」(2000年11月30日 大阪リサイタルホール)
TTITLE2=素敵なお客様が一言〜堀内孝雄〜
TTITLE3=ギター・ジングル〜スライド
EXTD=YEAR: 2003
EXTT0=
EXTT1=
EXTT2=
EXTT3=
PLAYORDER=
